PathFileType	3	(X/Y/Z)	D:\Vicon Setup\UG\Test1\New Session\NewSession10.trc
DataRate	CameraRate	NumFrames	NumMarkers	Units	OrigDataRate	OrigDataStartFrame	OrigNumFrames
100.0	100.0	6	27	mm	100.0	746	353	
Frame#	Time	Sternum			LShoulder			RShoulder			LASIS			RASIS			RPSIS			LPSIS			RKneeLateral			RKneeMedial			RFibulaHead			RMidShank			RAnkleLateral			RAnkleMedial			RHeel			RMT5			RMT2			RToe			LKneeLateral			LKneeMedial			LFibulaHead			LMidShank			LAnkleLateral			LAnkleMedial			LHeel			LMT5			LMT2			LToe			
		X1	Y1	Z1	X2	Y2	Z2	X3	Y3	Z3	X4	Y4	Z4	X5	Y5	Z5	X6	Y6	Z6	X7	Y7	Z7	X8	Y8	Z8	X9	Y9	Z9	X10	Y10	Z10	X11	Y11	Z11	X12	Y12	Z12	X13	Y13	Z13	X14	Y14	Z14	X15	Y15	Z15	X16	Y16	Z16	X17	Y17	Z17	X18	Y18	Z18	X19	Y19	Z19	X20	Y20	Z20	X21	Y21	Z21	X22	Y22	Z22	X23	Y23	Z23	X24	Y24	Z24	X25	Y25	Z25	X26	Y26	Z26	X27	Y27	Z27	
746	7.45	-260.18735	1362.2903	1096.3917	-67.388123	1419.7704	1003.8069	-438.00183	1411.6134	1010.0895	-148.00066	990.68976	1063.7527	-406.19693	992.8996	1030.7943	-311.66327	1002.7444	869.53021	-181.44995	1003.8541	879.0188	-455.66556	524.60864	1008.7786	-336.27155	488.45255	1060.7009	-459.39813	465.56042	971.32196				-384.98505	254.55437	689.00873	-325.20844	224.69844	754.57544	-310.66025	298.77115	660.85406	-426.96597	94.049957	680.9071	-374.54547	106.05666	734.53278	-369.10327	54.884922	749.35858	-128.47266	512.1803	1095.7603	-257.87711	504.91876	1113.4276	-127.18803	447.72626	1087.6957	-216.75227	300.11566	1122.6003	-173.81973	91.799927	1070.6703	-256.06543	118.66148	1105.4117	-232.98769	62.387955	999.53943	-141.29231	39.603992	1206.9717	-205.03337	62.375645	1220.889	-208.56332	45.392212	1284.1698
747	7.46	-260.14557	1364.8733	1109.4476	-67.041031	1422.5986	1017.5031	-437.7821	1413.6971	1022.2353	-147.10886	992.8277	1076.7505	-405.0748	996.11914	1043.9031	-310.67722	1005.6445	882.82697	-180.44948	1006.3938	892.2785	-455.6853	528.50696	1033.4998	-336.58429	492.84872	1086.4427	-459.21506	469.50305	997.039				-385.74673	255.14763	717.48138	-325.74957	226.67949	782.69141	-311.26968	296.91238	685.8811	-430.99686	95.141914	716.98486	-377.20563	108.19182	768.89355	-372.46628	57.363903	785.55475	-128.90897	512.69086	1101.1868	-258.65662	505.12482	1116.7808	-127.63736	448.30737	1092.1095	-217.26164	300.22696	1125.0474	-174.01477	92.367317	1071.3679	-256.38663	118.85226	1106.1409	-233.26111	62.742085	999.73334	-141.40703	39.522587	1207.0918	-205.24078	61.844944	1221.2372	-208.58488	44.589199	1284.2573
748	7.47	-260.11124	1367.408	1122.3973	-66.751488	1425.4875	1031.0908	-437.58615	1415.6526	1034.3196	-146.26627	994.79102	1089.6868	-403.89346	999.3335	1057.0032	-309.79221	1008.4813	896.04004	-179.57071	1008.8878	905.5097	-455.59482	532.47717	1057.7781	-336.82208	497.37048	1112.3871	-459.07114	473.43292	1022.691				-386.69312	254.1003	746.66473	-326.61752	227.49307	813.06433	-312.10638	293.63504	712.21277	-434.43677	94.860199	753.20001	-379.64145	109.06338	803.73669	-375.55652	58.81065	822.35846	-129.45114	513.13409	1106.4718	-259.62994	505.26523	1119.8591	-128.18781	448.90619	1096.4532	-217.91222	300.38373	1127.2832	-174.28468	92.968155	1072.0532	-256.74863	119.0669	1106.8802	-233.58885	63.165932	999.95471	-141.56125	39.487514	1207.209	-205.46082	61.38736	1221.5691	-208.65581	43.958145	1284.3956
749	7.48	-260.09308	1369.8503	1135.2556	-66.513718	1428.3663	1044.6127	-437.40256	1417.4443	1046.3435	-145.47026	996.52826	1102.5734	-402.6756	1002.4973	1070.1268	-309.03336	1011.1753	909.17371	-178.84274	1011.2869	918.71161	-455.44763	536.39307	1081.6293	-336.9639	502.0383	1138.1221	-459.01959	477.16275	1048.1801				-387.65573	251.55711	776.42273	-327.70685	226.95128	844.46802	-312.8667	288.95084	739.75909	-437.40784	93.360855	789.43323	-382.05814	108.83817	839.01782	-378.62851	59.331043	859.66309	-130.01947	513.5249	1111.5048	-260.67078	505.35016	1122.8192	-128.77963	449.48941	1100.5728	-218.54938	300.58099	1129.4644	-174.65511	93.552406	1072.7056	-257.14499	119.31007	1107.6581	-233.94487	63.65741	1000.1918	-141.72473	39.486706	1207.3269	-205.67818	60.987034	1221.9008	-208.74803	43.436543	1284.5796
750	7.49	-260.10077	1372.1516	1148.0383	-66.322281	1431.157	1058.1007	-437.22595	1419.0383	1058.3073	-144.71515	998.02692	1115.4031	-401.44666	1005.571	1083.3109	-308.43494	1013.6641	922.23621	-178.28488	1013.5434	931.86847	-455.31802	540.16022	1105.0669	-337.01147	506.83844	1163.2126	-459.06079	480.52878	1073.3746				-388.5321	247.65738	806.73242	-328.85532	225.12239	876.38184	-313.41519	282.85529	768.32843	-440.07895	90.814056	825.94257	-384.54877	107.71989	874.90509	-381.79556	59.082726	897.59973	-130.56357	513.9104	1116.2284	-261.65732	505.43237	1125.8574	-129.37631	450.05951	1104.3623	-219.06976	300.80655	1131.6956	-175.11456	94.104851	1073.3235	-257.56259	119.58381	1108.4846	-234.30501	64.206116	1000.4308	-141.88091	39.501263	1207.4413	-205.88181	60.62817	1222.2445	-208.83319	42.948677	1284.7905
751	7.5	-260.14359	1374.2577	1160.7627	-66.175537	1433.7802	1071.5745	-437.06067	1420.4043	1070.2229	-143.98875	999.2995	1128.1562	-400.23569	1008.5049	1096.5778	-308.01971	1015.9093	935.24603	-177.90071	1015.6201	944.95966	-455.26779	543.71979	1128.0894	-336.97354	511.72601	1187.3818	-459.1611	483.40811	1098.1495				-389.29108	242.52016	837.65363	-329.92123	222.20569	908.67743	-313.77142	275.33676	797.72516	-442.61066	87.415543	863.15594	-387.09845	105.90837	911.62781	-385.04694	58.270184	936.42407	-131.06303	514.33008	1120.6641	-262.51065	505.57303	1129.2239	-129.96503	450.64151	1107.8345	-219.44765	301.03452	1133.9984	-175.61694	94.651779	1073.9269	-257.98001	119.88367	1109.3458	-234.65596	64.804726	1000.6718	-142.02452	39.51326	1207.5475	-206.06493	60.299007	1222.6053	-208.90076	42.443138	1285.0062
